<svg width="43" height="43" viewBox="0 0 43 43" fill="none" xmlns="http://www.w3.org/2000/svg">
<ellipse cx="21.1615" cy="21.02" rx="21.1615" ry="21" fill="#E0B400"/>
<ellipse cx="21.1619" cy="21.0201" rx="18.6473" ry="18.505" fill="#FAFAFA"/>
<mask id="mask0_216_10865" style="mask-type:alpha" maskUnits="userSpaceOnUse" x="0" y="0" width="43" height="43">
<ellipse cx="21.1615" cy="21.02" rx="21.1615" ry="21" fill="#E0B400"/>
</mask>
<g mask="url(#mask0_216_10865)">
<path d="M15.9532 28.0238L9.66756 39.6674L8.59473 41.5233L10.8881 43.0674L24.1674 43.5079L26.9695 41.5233C26.8265 39.9988 26.5388 36.9167 26.5322 36.784C26.5238 36.6183 26.5368 36.5698 26.5854 36.4495C26.6339 36.3291 28.728 31.8359 29.1926 30.5842C29.6571 29.3325 29.5831 27.8996 29.5611 27.5544C29.5081 26.7232 29.2576 26.1991 29.1926 25.9409C29.1405 25.7344 28.8891 25.0768 28.7698 24.7738L28.5151 23.752C28.5345 23.4839 28.5733 22.8927 28.5733 22.6729C28.5733 22.3982 28.618 21.9817 28.6448 21.7867C28.6715 21.5917 29.002 20.2801 29.1181 19.7217C29.2342 19.1634 29.252 19.1014 29.4574 18.933C29.6628 18.7646 33.4721 15.43 33.7415 15.2112C34.011 14.9924 34.0559 14.956 34.0927 14.7858C34.1294 14.6156 34.3131 13.7445 34.3948 13.4488C34.4764 13.153 34.5377 12.8897 34.5295 12.7479C34.5213 12.6061 34.4274 11.7755 34.4152 11.6773C34.4029 11.5791 34.3335 11.4676 34.1825 11.342C34.0314 11.2164 33.8804 11.2002 33.7538 11.1961C33.6272 11.1921 31.3836 11.5998 30.6763 11.6773C29.9689 11.7548 29.0549 11.691 28.738 11.6545C28.4211 11.618 28.3705 11.5724 27.9801 11.1485C27.5897 10.7247 27.2498 10.4694 27.0569 10.3509C26.864 10.2324 26.3082 9.99992 26.1245 9.96345C25.9408 9.92699 24.7466 9.88141 24.4388 9.85406C24.1311 9.82671 23.139 9.85406 22.6429 9.66718C22.1469 9.4803 21.761 9.00171 21.7243 8.86041C21.6876 8.71911 21.6922 8.50944 21.5911 8.15391C21.1915 7.24685 20.7138 6.58594 20.5439 6.4811C20.3739 6.37627 20.1626 6.07088 20.1029 6.02529C20.0432 5.97971 19.956 5.99795 19.8319 6.02529C19.7079 6.05264 19.7128 6.24233 19.6167 6.32613C19.4651 6.45831 19.3956 6.4264 19.2716 6.32613C19.1476 6.22585 18.725 5.46486 18.578 5.35547C18.431 5.24608 17.9442 5.06365 17.8247 5.12746C17.7554 5.1645 17.7053 5.21406 17.3654 5.60147C17.3241 6.92787 17.2103 7.64756 17.2103 10.5584C16.037 15.0495 15.8833 21.1624 15.9532 23.6575V28.0238Z" fill="#0A0A0A"/>
<path d="M25.6754 26.3497L26.9415 24.9722L28.1466 24.7517C28.2063 24.9132 28.4298 25.5785 28.8463 26.9478C29.2857 28.9235 28.7162 30.129 28.586 30.5811C28.4818 30.9429 27.0438 33.9731 26.3377 35.443L25.9059 36.483L25.8724 36.6939L23.1445 40.762L26.8209 27.7204L24.7115 27.5398L25.6754 26.3497Z" fill="#FAFAFA"/>
<path d="M11.9735 24.489C7.28027 25.487 3.52287 25.1127 2.33559 24.6969L1.70703 27.8157C1.91655 28.6474 2.88034 30.7682 5.05935 32.5979C7.78312 32.39 9.87832 31.5583 11.345 31.1424C12.8116 30.7266 15.3258 28.8553 17.421 26.984C20.3543 25.5286 21.821 25.5286 23.9162 25.3206C26.0114 25.1127 26.8634 25.0969 28.749 24.681C28.6509 24.22 28.5777 23.2568 28.5777 22.6331C28.2424 22.6331 27.6875 23.1721 27.478 23.4494C27.059 23.1721 25.4666 22.6177 22.4495 22.6177C18.6782 22.6177 17.8401 23.2414 11.9735 24.489Z" fill="#E0B400"/>
</g>
</svg>
